<?xml version="1.0" encoding="utf-8"?>
<!DOCTYPE svg PUBLIC "-//W3C//DTD SVG 20010904//EN" "http://www.w3.org/TR/2001/REC-SVG-20010904/DTD/svg10.dtd">
<svg version="1.0" xmlns="http://www.w3.org/2000/svg" width="90px" height="53px" viewBox="0 0 90 53" preserveAspectRatio="xMidYMid meet">
 <g fill="#191919">
  <path d="M6.5 49 c-1.4 -2.2 -3.3 -5.5 -4.1 -7.3 l-1.6 -3.3 11 -18.9 11 -19 7.8 -0.3 7.9 -0.3 3 5.6 c1.6 3 3.2 5.5 3.5 5.5 0.3 0 1.9 -2.5 3.5 -5.5 l3 -5.6 7.9 0.3 7.8 0.3 11 19 11 18.9 -1.6 3.3 c-0.8 1.8 -2.7 5.1 -4.1 7.3 l-2.5 4 -7.5 0 -7.5 0 -3.1 -5.5 c-1.7 -3 -3.5 -5.3 -3.9 -5 -0.5 0.3 -2.1 2.8 -3.6 5.5 l-2.7 5 -7.7 0 -7.7 0 -2.7 -5 c-1.5 -2.7 -3.1 -5.2 -3.6 -5.5 -0.4 -0.3 -2.2 2 -3.9 5 l-3.1 5.5 -7.5 0 -7.5 0 -2.5 -4z m19.5 -4.5 l3.1 -5.5 -2.3 -4.3 c-1.3 -2.3 -2.8 -4.2 -3.3 -4.1 -1 0.1 -11.4 17.2 -11.5 18.7 0 0.4 2.4 0.7 5.4 0.7 l5.5 0 3.1 -5.5z m28.3 0.5 l2.8 -5 -5.8 0 -5.8 0 -2.3 4.3 c-1.2 2.3 -2.2 4.5 -2.2 5 0 0.4 2.4 0.7 5.3 0.7 l5.2 0 2.8 -5z m28.4 0.5 c1.2 -2.2 2.3 -4.3 2.3 -4.7 0 -0.5 -2.4 -0.8 -5.3 -0.8 -5.1 0 -5.3 0.1 -8 4.5 -1.5 2.5 -2.7 4.8 -2.7 5.1 0 0.3 2.6 0.4 5.7 0.2 5.5 -0.3 5.8 -0.4 8 -4.3z m-67.2 -7.7 c3.2 -5.7 6.4 -11.1 7 -12 1 -1.4 2.2 0.1 8 10.2 3.8 6.6 7.2 12 7.5 12 0.7 0 5 -8.2 5 -9.5 -0.1 -1.5 -18.7 -33 -19.5 -33 -0.8 0 -19.4 31.5 -19.5 33 0 1.3 4.3 9.5 5.1 9.5 0.3 0 3.2 -4.6 6.4 -10.2z m54.1 5.7 l2.6 -4.6 -8.7 -15.2 c-10.6 -18.2 -10.8 -18.7 -11.5 -18.7 -0.6 0 -5 8.2 -5 9.3 0 0.5 2.4 5 5.3 10 3 5.1 7.3 12.5 9.6 16.5 2.3 3.9 4.4 7.2 4.6 7.2 0.2 0 1.6 -2 3.1 -4.5z m-22.1 -22.6 c-5.2 -8.9 -9.8 -16.6 -10.3 -17.1 -0.5 -0.5 -3.2 -0.8 -6.1 -0.6 l-5.1 0.3 9.7 16.8 9.7 16.7 5.7 0 5.7 0 -9.3 -16.1z m37.5 15.7 c0 -0.3 -4.3 -7.9 -9.6 -17 l-9.6 -16.6 -5.4 0 c-3 0 -5.4 0.3 -5.4 0.6 0 0.5 2.9 5.6 13.7 24.2 l5.4 9.2 5.5 0 c3 0 5.4 -0.2 5.4 -0.4z"/>
 </g>
</svg>